<svg width="15" height="15" viewBox="0 0 15 15" fill="none" xmlns="http://www.w3.org/2000/svg">
<path d="M4.375 7.5H4.12875C3.88183 7.49994 3.64043 7.57302 3.435 7.71L1.875 8.75V3.125C1.875 2.79348 2.0067 2.47554 2.24112 2.24112C2.47554 2.0067 2.79348 1.875 3.125 1.875H7.5C7.83152 1.875 8.14946 2.0067 8.38388 2.24112C8.6183 2.47554 8.75 2.79348 8.75 3.125V4.375M7.5 6.25H11.875C12.2065 6.25 12.5245 6.3817 12.7589 6.61612C12.9933 6.85054 13.125 7.16848 13.125 7.5V13.125L11.565 12.085C11.3596 11.948 11.1182 11.8749 10.8712 11.875H7.5C7.16848 11.875 6.85054 11.7433 6.61612 11.5089C6.3817 11.2745 6.25 10.9565 6.25 10.625V7.5C6.25 7.16848 6.3817 6.85054 6.61612 6.61612C6.85054 6.3817 7.16848 6.25 7.5 6.25Z" stroke="white" stroke-linecap="round" stroke-linejoin="round"/>
</svg>
